<?xml version="1.0" ?><svg height="24px" version="1.1" viewBox="0 0 24 24" width="24px" xmlns="http://www.w3.org/2000/svg" xmlns:sketch="http://www.bohemiancoding.com/sketch/ns" xmlns:xlink="http://www.w3.org/1999/xlink"><title/><desc/><defs/><g fill="none" fill-rule="evenodd" id="miu" stroke="none" stroke-width="1"><g id="Artboard-1" transform="translate(-755.000000, -191.000000)"><g id="slice" transform="translate(215.000000, 119.000000)"/><path d="M757.101419,201.5 C757.833009,196.134473 762.433675,192 768,192 C774.075133,192 779,196.924867 779,203 C779,208.957095 774.264651,213.808189 768.352783,213.99445 L768.352783,213.99445 L768.352783,211.993213 C773.159829,211.807926 777,207.852423 777,203 C777,198.029437 772.970563,194 768,194 C763.540505,194 759.838555,197.24343 759.124438,201.5 L761,201.5 L758,205 L755,201.5 L757.101419,201.5 Z" fill="#000000" id="editor-redo-arrow-reload-glyph" transform="translate(767.000000, 203.500000) scale(-1, 1) translate(-767.000000, -203.500000) "/></g></g></svg>