<?xml version="1.0" ?><svg style="enable-background:new 0 0 50 50;" version="1.1" viewBox="0 0 50 50" xml:space="preserve" xmlns="http://www.w3.org/2000/svg" xmlns:xlink="http://www.w3.org/1999/xlink"><g id="Layer_1"><path d="M45.633,17.348C46.54,19.792,47,22.367,47,25c0,12.131-9.869,22-22,22S3,37.131,3,25S12.869,3,25,3   c6.595,0,12.795,2.963,16.958,8H35v2h10V3h-2v6.126C38.47,3.993,31.932,1,25,1C11.767,1,1,11.767,1,25s10.767,24,24,24   s24-10.767,24-24c0-2.872-0.502-5.68-1.492-8.348L45.633,17.348z"/></g><g/></svg>