<?xml version="1.0" ?><svg height="24px" version="1.1" viewBox="0 0 24 24" width="24px" xmlns="http://www.w3.org/2000/svg" xmlns:sketch="http://www.bohemiancoding.com/sketch/ns" xmlns:xlink="http://www.w3.org/1999/xlink"><title/><desc/><defs/><g fill="none" fill-rule="evenodd" id="miu" stroke="none" stroke-width="1"><g id="Artboard-1" transform="translate(-719.000000, -191.000000)"><g id="slice" transform="translate(215.000000, 119.000000)"/><path d="M721.101419,201.5 C721.833009,196.134473 726.433675,192 732,192 C738.075133,192 743,196.924867 743,203 C743,208.957095 738.264651,213.808189 732.352783,213.99445 L732.352783,213.99445 L732.352783,212.993893 C737.712252,212.808071 742,208.404764 742,203 C742,197.477152 737.522848,193 732,193 C726.986962,193 722.835476,196.688737 722.11175,201.5 L724,201.5 L721.5,204.5 L719,201.5 L721.101419,201.5 Z" fill="#000000" id="editor-redo-arrow-reload-outline-stroke" transform="translate(731.000000, 203.500000) scale(-1, 1) translate(-731.000000, -203.500000) "/></g></g></svg>